<?xml version="1.0" encoding="UTF-8" standalone="no"?>
<!DOCTYPE svg PUBLIC "-//W3C//DTD SVG 1.1//EN" "http://www.w3.org/Graphics/SVG/1.1/DTD/svg11.dtd">
<svg xmlns="http://www.w3.org/2000/svg" xmlns:xlink="http://www.w3.org/1999/xlink" version="1.1" width="2987.7498pt" height="1729.2971pt" viewBox="0 0 2987.7498 1729.2971">
<g enable-background="new">
<path transform="matrix(2.7777777,0,0,-2.7777777,0,1729.2971)" d="M 162.331 461.166 L 269.883 461.166 L 269.883 431.378 L 200.923 344.15 L 272.4 344.15 L 272.4 312.125 L 155.704 312.125 L 155.704 343.031 L 223.91 429.345 L 162.331 429.345 Z " fill="#18b3db"/>
<path transform="matrix(2.7777777,0,0,-2.7777777,0,1729.2971)" d="M 293.454 461.166 L 349.915 461.166 C 361.045 461.166 370.035 459.336 376.887 455.676 C 383.738 452.016 389.401 446.764 393.875 439.918 C 398.35 433.073 401.593 425.109 403.607 416.027 C 405.62 406.945 406.627 397.32 406.627 387.154 C 406.627 371.226 405.131 358.874 402.139 350.097 C 399.147 341.32 394.994 333.966 389.681 328.036 C 384.367 322.105 378.663 318.157 372.566 316.192 C 364.233 313.481 356.682 312.125 349.915 312.125 L 293.454 312.125 Z M 331.458 427.413 L 331.458 345.98 L 340.77 345.98 C 348.712 345.98 354.361 347.047 357.717 349.182 C 361.073 351.317 363.701 355.045 365.603 360.365 C 367.505 365.686 368.455 374.31 368.455 386.239 C 368.455 402.031 366.33 412.841 362.079 418.67 C 357.829 424.499 350.782 427.413 340.938 427.413 Z " fill="#18b3db"/>
<path transform="matrix(2.7777777,0,0,-2.7777777,0,1729.2971)" d="M 430.198 461.166 L 468.202 461.166 L 468.202 404.844 L 508.051 461.166 L 558.556 461.166 L 513.756 404.945 L 560.569 312.125 L 513.756 312.125 L 487.833 373.429 L 468.202 348.521 L 468.202 312.125 L 430.198 312.125 Z " fill="#18b3db"/>
<path transform="matrix(2.7777777,0,0,-2.7777777,0,1729.2971)" d="M 575.583 461.166 L 609.728 461.166 L 609.728 433.005 L 575.583 433.005 Z M 575.583 420.093 L 609.728 420.093 L 609.728 312.125 L 575.583 312.125 Z " fill="#18b3db"/>
<path transform="matrix(2.7777777,0,0,-2.7777777,0,1729.2971)" d="M 717.276 461.166 L 755.196 461.166 L 755.196 372.311 C 755.196 363.5 754.064 355.18 751.798 347.352 C 749.533 339.524 745.982 332.678 741.144 326.816 C 736.306 320.953 731.23 316.835 725.917 314.463 C 718.535 311.142 709.67 309.482 699.323 309.482 C 693.338 309.482 686.809 309.99 679.734 311.007 C 672.659 312.023 666.744 314.04 661.99 317.056 C 657.236 320.072 652.888 324.359 648.945 329.916 C 645.002 335.474 642.303 341.201 640.849 347.098 C 638.5 356.587 637.325 364.991 637.325 372.311 L 637.325 461.166 L 675.245 461.166 L 675.245 370.176 C 675.245 362.043 677.105 355.689 680.824 351.114 C 684.544 346.539 689.703 344.251 696.303 344.251 C 702.846 344.251 707.978 346.505 711.697 351.012 C 715.416 355.519 717.276 361.907 717.276 370.176 Z " fill="#18b3db"/>
<path transform="matrix(2.7777777,0,0,-2.7777777,0,1729.2971)" d="M 783.381 461.166 L 833.382 461.166 L 852.678 370.481 L 871.889 461.166 L 921.722 461.166 L 921.722 312.125 L 890.681 312.125 L 890.681 425.787 L 866.604 312.125 L 838.499 312.125 L 814.506 425.787 L 814.506 312.125 L 783.381 312.125 Z " fill="#18b3db"/>
<path transform="matrix(2.7777777,0,0,-2.7777777,0,1729.2971)" d="M 244.253 167.653 L 256.307 167.653 L 260.652 139.831 L 266.987 167.653 L 279.013 167.653 L 285.377 139.831 L 289.722 167.653 L 301.72 167.653 L 292.665 117.852 L 280.219 117.852 L 273.014 149.207 L 265.838 117.852 L 253.391 117.852 Z " fill="#8b8988"/>
<path transform="matrix(2.7777777,0,0,-2.7777777,0,1729.2971)" d="M 354.72 126.072 L 340.255 126.072 L 338.265 117.852 L 325.286 117.852 L 340.732 167.653 L 354.58 167.653 L 370.026 117.852 L 356.739 117.852 Z M 352.057 136.841 L 347.516 154.744 L 343.003 136.841 Z " fill="#8b8988"/>
<path transform="matrix(2.7777777,0,0,-2.7777777,0,1729.2971)" d="M 397.629 167.653 L 410.328 167.653 L 410.328 153.928 L 419.242 162.047 L 419.242 152.536 L 410.328 144.383 L 410.328 130.115 L 430.119 130.115 L 430.119 117.852 L 397.629 117.852 L 397.629 132.765 L 393.396 128.824 L 393.396 138.336 L 397.629 142.209 Z " fill="#8b8988"/>
<path transform="matrix(2.7777777,0,0,-2.7777777,0,1729.2971)" d="M 459.488 167.653 L 483.26 167.653 C 487.222 167.653 490.263 166.464 492.384 164.086 C 494.505 161.708 495.566 158.764 495.566 155.253 C 495.566 152.309 494.809 149.784 493.295 147.678 C 492.286 146.274 490.81 145.164 488.866 144.349 C 491.819 143.488 493.991 142.01 495.384 139.916 C 496.776 137.821 497.472 135.188 497.472 132.017 C 497.472 129.436 496.977 127.114 495.986 125.053 C 494.996 122.992 493.641 121.362 491.922 120.162 C 490.856 119.414 489.249 118.871 487.1 118.531 C 484.241 118.078 482.344 117.852 481.409 117.852 L 459.488 117.852 Z M 472.299 148.119 L 477.821 148.119 C 479.802 148.119 481.18 148.533 481.956 149.359 C 482.732 150.186 483.119 151.381 483.119 152.943 C 483.119 154.393 482.732 155.525 481.956 156.34 C 481.18 157.156 479.83 157.563 477.905 157.563 L 472.299 157.563 Z M 472.299 128.552 L 478.774 128.552 C 480.961 128.552 482.503 129.022 483.4 129.962 C 484.297 130.902 484.745 132.165 484.745 133.75 C 484.745 135.222 484.301 136.405 483.414 137.3 C 482.526 138.194 480.97 138.642 478.746 138.642 L 472.299 138.642 Z " fill="#8b8988"/>
<path transform="matrix(2.7777777,0,0,-2.7777777,0,1729.2971)" d="M 527.822 117.852 L 527.822 167.653 L 548.987 167.653 C 552.912 167.653 555.911 167.245 557.985 166.43 C 560.06 165.614 561.732 164.103 563.003 161.895 C 564.274 159.687 564.909 156.997 564.909 153.827 C 564.909 151.064 564.424 148.68 563.452 146.676 C 562.48 144.671 561.144 143.047 559.443 141.801 C 558.359 141.008 556.873 140.352 554.986 139.831 C 556.5 139.219 557.602 138.608 558.294 137.996 C 558.761 137.589 559.438 136.717 560.326 135.38 C 561.214 134.044 561.807 133.014 562.106 132.289 L 568.245 117.852 L 553.893 117.852 L 547.109 133.07 C 546.249 135.041 545.483 136.32 544.81 136.909 C 543.894 137.679 542.857 138.064 541.698 138.064 L 540.577 138.064 L 540.577 117.852 Z M 540.577 147.474 L 545.931 147.474 C 546.511 147.474 547.632 147.701 549.295 148.153 C 550.136 148.357 550.823 148.878 551.356 149.716 C 551.888 150.554 552.155 151.517 552.155 152.604 C 552.155 154.212 551.734 155.446 550.893 156.306 C 550.052 157.167 548.473 157.597 546.156 157.597 L 540.577 157.597 Z " fill="#8b8988"/>
<path transform="matrix(2.7777777,0,0,-2.7777777,0,1729.2971)" d="M 594.811 167.653 L 630.749 167.653 L 630.749 157.699 L 607.706 128.552 L 631.59 128.552 L 631.59 117.852 L 592.597 117.852 L 592.597 128.179 L 615.387 157.02 L 594.811 157.02 Z " fill="#8b8988"/>
<path transform="matrix(2.7777777,0,0,-2.7777777,0,1729.2971)" d="M 656.698 167.653 L 670.799 167.653 L 679.096 150.837 L 687.394 167.653 L 701.41 167.653 L 685.432 138.71 L 685.432 117.852 L 672.705 117.852 L 672.705 138.71 Z " fill="#8b8988"/>
<path transform="matrix(2.7777777,0,0,-2.7777777,0,1729.2971)" d="M 752.953 138.2 L 764.082 134.124 C 763.334 130.341 762.157 127.182 760.55 124.646 C 758.943 122.109 756.948 120.196 754.565 118.905 C 752.182 117.614 749.15 116.968 745.468 116.968 C 741.002 116.968 737.353 117.755 734.522 119.329 C 731.69 120.903 729.247 123.672 727.191 127.635 C 725.135 131.598 724.108 136.671 724.108 142.854 C 724.108 151.098 725.916 157.433 729.532 161.861 C 733.148 166.288 738.264 168.502 744.88 168.502 C 750.056 168.502 754.126 167.234 757.088 164.697 C 760.05 162.161 762.25 158.265 763.689 153.011 L 752.476 149.988 C 752.084 151.505 751.673 152.615 751.243 153.317 C 750.533 154.495 749.664 155.401 748.636 156.035 C 747.608 156.669 746.459 156.986 745.188 156.986 C 742.31 156.986 740.105 155.582 738.572 152.773 C 737.414 150.69 736.834 147.417 736.834 142.956 C 736.834 137.43 737.526 133.642 738.909 131.593 C 740.292 129.543 742.235 128.518 744.739 128.518 C 747.169 128.518 749.005 129.345 750.248 130.998 C 751.491 132.651 752.392 135.052 752.953 138.2 Z " fill="#8b8988"/>
<path transform="matrix(2.7777777,0,0,-2.7777777,0,1729.2971)" d="M 793.844 167.653 L 806.542 167.653 L 806.542 150.226 L 820.418 150.226 L 820.418 167.653 L 833.173 167.653 L 833.173 117.852 L 820.418 117.852 L 820.418 137.996 L 806.542 137.996 L 806.542 117.852 L 793.844 117.852 Z " fill="#8b8988"/>
<path transform="matrix(2.7777777,0,0,-2.7777777,0,1729.2971)" d="M 215.719 232.89 L 861.707 232.89 C 868.253 232.89 873.568 238.204 873.568 244.75 C 873.568 251.297 868.253 256.611 861.707 256.611 L 215.719 256.611 C 209.173 256.611 203.858 251.297 203.858 244.75 C 203.858 238.204 209.173 232.89 215.719 232.89 Z " fill="#18b3db" fill-rule="evenodd"/>
</g>
</svg>
