<svg id="_002-bar-chart" data-name="002-bar-chart" xmlns="http://www.w3.org/2000/svg" width="17" height="17.094" viewBox="0 0 17 17.094">
  <g id="Group_428" data-name="Group 428">
    <g id="Group_427" data-name="Group 427">
      <rect id="Rectangle_82" data-name="Rectangle 82" width="17" height="1" transform="translate(0 16.094)"/>
      <path id="Path_113" data-name="Path 113" d="M24.288,293.751h2.876a.288.288,0,0,0,.288-.288v-5.176a.288.288,0,0,0-.288-.288H24.288a.288.288,0,0,0-.288.288v5.176A.288.288,0,0,0,24.288,293.751Zm.288-5.176h2.3v4.6h-2.3Z" transform="translate(-23.137 -277.648)"/>
      <path id="Path_114" data-name="Path 114" d="M248.288,201.2h2.876a.288.288,0,0,0,.288-.288v-8.627a.288.288,0,0,0-.288-.288h-2.876a.288.288,0,0,0-.288.288v8.627A.288.288,0,0,0,248.288,201.2Zm.288-8.627h2.3v8.052h-2.3Z" transform="translate(-239.086 -185.099)"/>
      <path id="Path_115" data-name="Path 115" d="M136.288,108.653h2.876a.288.288,0,0,0,.288-.288V96.288a.288.288,0,0,0-.288-.288h-2.876a.288.288,0,0,0-.288.288v12.077A.288.288,0,0,0,136.288,108.653Zm.288-12.077h2.3v11.5h-2.3Z" transform="translate(-131.111 -92.549)"/>
      <path id="Path_116" data-name="Path 116" d="M360.288,16.1h2.876a.288.288,0,0,0,.288-.288V.288A.288.288,0,0,0,363.163,0h-2.876A.288.288,0,0,0,360,.288V15.816A.288.288,0,0,0,360.288,16.1ZM360.575.575h2.3V15.528h-2.3Z" transform="translate(-347.06)"/>
    </g>
  </g>
</svg>
