<svg id="_002-calendar" data-name="002-calendar" xmlns="http://www.w3.org/2000/svg" width="21.626" height="23.171" viewBox="0 0 21.626 23.171">
  <path id="Path_13" data-name="Path 13" d="M23.24,1.545h-2.7V.386A.386.386,0,0,0,20.15,0h-2.7a.386.386,0,0,0-.386.386V1.545h-8.5V.386A.386.386,0,0,0,8.179,0h-2.7a.386.386,0,0,0-.386.386V1.545h-2.7A.386.386,0,0,0,2,1.931V22.785a.386.386,0,0,0,.386.386H23.24a.386.386,0,0,0,.386-.386V1.931A.386.386,0,0,0,23.24,1.545ZM17.833.772h1.931V3.089H17.833V.772ZM5.862.772H7.793V3.089H5.862V.772ZM2.772,2.317H5.089V3.476a.386.386,0,0,0,.386.386h2.7a.386.386,0,0,0,.386-.386V2.317h8.5V3.476a.386.386,0,0,0,.386.386h2.7a.386.386,0,0,0,.386-.386V2.317h2.317V5.793H2.772Zm0,20.081V6.565H22.854V22.4Z" transform="translate(-2 0)" fill="#707070"/>
  <path id="Path_14" data-name="Path 14" d="M21.427,23H11V34.2H25.675V23H21.427Zm-2.7.772h2.7v2.7h-2.7Zm2.7,6.179h-2.7v-2.7h2.7Zm-6.179-2.7h2.7v2.7h-2.7Zm0-3.476h2.7v2.7h-2.7Zm-3.476,0h2.7v2.7h-2.7Zm0,3.476h2.7v2.7h-2.7Zm2.7,6.179h-2.7v-2.7h2.7Zm3.476,0h-2.7v-2.7h2.7Zm3.476,0h-2.7v-2.7h2.7Zm3.476,0H22.2v-2.7h2.7Zm0-3.476H22.2v-2.7h2.7Zm0-6.179v2.7H22.2v-2.7Z" transform="translate(-7.524 -14.118)" fill="#707070"/>
</svg>
