<svg xmlns="http://www.w3.org/2000/svg" width="35.896" height="35.894" viewBox="0 0 35.896 35.894">
  <path id="fi-rr-car-bus" d="M35.9,28.417a23.812,23.812,0,0,0-1.84-9.2l-.48-1.152a7.46,7.46,0,0,0-6.9-4.6H21.189a7.46,7.46,0,0,0-6.9,4.6l-.479,1.15c-1.346,3.952-4.038,11.331,1.15,13.434V32.9a2.991,2.991,0,0,0,5.983,0h5.983a2.991,2.991,0,0,0,5.983,0v-.257A4.487,4.487,0,0,0,35.9,28.417Zm-18.846-9.2a4.478,4.478,0,0,1,4.139-2.761h5.483a4.478,4.478,0,0,1,4.143,2.761l.479,1.152c.081.19.15.381.23.574H16.339c.073-.193.15-.384.229-.576Zm14.359,10.7H16.452c-2.628-.254-1.152-4.291-1.011-5.983h2.507v1.5a1.5,1.5,0,0,0,2.991,0v-1.5h5.983v1.5a1.5,1.5,0,0,0,2.991,0v-1.5H32.42C32.559,25.619,34.037,29.66,31.409,29.913ZM9.722,16.452H5.983V9.37A3.885,3.885,0,0,1,6,8.973h7.465v1.5a1.5,1.5,0,0,0,2.991,0v-1.5h7.465c.007.132.013.263.013.4v1.1a1.5,1.5,0,0,0,2.991,0V9.37A8.893,8.893,0,0,0,20.443.747a20.546,20.546,0,0,0-10.972,0A8.893,8.893,0,0,0,2.991,9.37V13.46a2.991,2.991,0,1,0,0,5.983V23.93a4.5,4.5,0,0,0,2.991,4.231v1.751a1.5,1.5,0,0,0,2.991,0V26.921a1.5,1.5,0,0,0-1.5-1.5,1.5,1.5,0,0,1-1.5-1.5V19.443H9.722a1.5,1.5,0,1,0,0-2.991Zm.531-12.815a17.534,17.534,0,0,1,9.408,0A5.722,5.722,0,0,1,22.9,5.982H7.01a5.722,5.722,0,0,1,3.243-2.345Z" transform="translate(0 -0.001)" fill="#0c3572"/>
</svg>
