<svg id="chat" xmlns="http://www.w3.org/2000/svg" width="24.892" height="24.892" viewBox="0 0 24.892 24.892">
  <g id="Group_379" data-name="Group 379" transform="translate(4.667 4.667)">
    <g id="Group_378" data-name="Group 378">
      <path id="Path_84" data-name="Path 84" d="M106.112,96H96.778a.778.778,0,0,0,0,1.556h9.335a.778.778,0,0,0,0-1.556Z" transform="translate(-96 -96)"/>
    </g>
  </g>
  <g id="Group_381" data-name="Group 381" transform="translate(4.667 7.779)">
    <g id="Group_380" data-name="Group 380">
      <path id="Path_85" data-name="Path 85" d="M103,160H96.778a.778.778,0,1,0,0,1.556H103A.778.778,0,1,0,103,160Z" transform="translate(-96 -160)"/>
    </g>
  </g>
  <g id="Group_383" data-name="Group 383">
    <g id="Group_382" data-name="Group 382">
      <path id="Path_86" data-name="Path 86" d="M17.113,0h-14A3.115,3.115,0,0,0,0,3.112V18.669a.777.777,0,0,0,.448.7.789.789,0,0,0,.33.073.778.778,0,0,0,.5-.18l4.451-3.709H17.113a3.115,3.115,0,0,0,3.112-3.112V3.112A3.115,3.115,0,0,0,17.113,0Zm1.556,12.446A1.557,1.557,0,0,1,17.113,14H5.445a.777.777,0,0,0-.5.18L1.556,17.009V3.112A1.557,1.557,0,0,1,3.112,1.556h14a1.557,1.557,0,0,1,1.556,1.556Z"/>
    </g>
  </g>
  <g id="Group_385" data-name="Group 385" transform="translate(6.223 6.223)">
    <g id="Group_384" data-name="Group 384">
      <path id="Path_87" data-name="Path 87" d="M143.558,128a.778.778,0,1,0,0,1.556,1.557,1.557,0,0,1,1.556,1.556v13.16l-2.626-2.1A.784.784,0,0,0,142,142h-10.89a1.557,1.557,0,0,1-1.556-1.556v-.778a.778.778,0,1,0-1.556,0v.778a3.115,3.115,0,0,0,3.112,3.112h10.617L145.4,146.5a.778.778,0,0,0,1.265-.608v-14.78A3.115,3.115,0,0,0,143.558,128Z" transform="translate(-128 -128)"/>
    </g>
  </g>
</svg>
