<svg xmlns="http://www.w3.org/2000/svg" width="28.337" height="27.096" viewBox="0 0 28.337 27.096">
  <g id="check" transform="translate(0 0)">
    <g id="Group_23" data-name="Group 23" transform="translate(0 0)">
      <g id="Group_22" data-name="Group 22">
        <path id="Path_15" data-name="Path 15" d="M25.952,22.463a1.145,1.145,0,0,0-1.145,1.145v1.153A11.259,11.259,0,0,1,13.548,36.013h-.007A11.259,11.259,0,0,1,13.548,13.5h.007a11.189,11.189,0,0,1,4.576.975,1.145,1.145,0,1,0,.932-2.091,13.462,13.462,0,0,0-5.506-1.173h-.008a13.548,13.548,0,0,0-.008,27.1h.008A13.548,13.548,0,0,0,27.1,24.761V23.608A1.145,1.145,0,0,0,25.952,22.463Z" transform="translate(0 -11.206)" fill="#3cde00"/>
      </g>
    </g>
    <g id="Group_25" data-name="Group 25" transform="translate(8.682 1.247)">
      <g id="Group_24" data-name="Group 24">
        <path id="Path_16" data-name="Path 16" d="M176.2,34.081a1.145,1.145,0,0,0-1.619,0L161.745,46.916,158.833,44a1.145,1.145,0,0,0-1.619,1.619l3.721,3.721a1.145,1.145,0,0,0,1.619,0L176.2,35.7A1.145,1.145,0,0,0,176.2,34.081Z" transform="translate(-156.879 -33.746)" fill="#3cde00"/>
      </g>
    </g>
  </g>
</svg>
