<svg id="fi-rr-checkbox" xmlns="http://www.w3.org/2000/svg" width="35.896" height="35.896" viewBox="0 0 35.896 35.896">
  <path id="Path_202" data-name="Path 202" d="M28.418,0H7.478A7.487,7.487,0,0,0,0,7.478V28.418A7.487,7.487,0,0,0,7.478,35.9h20.94A7.487,7.487,0,0,0,35.9,28.418V7.478A7.487,7.487,0,0,0,28.418,0ZM32.9,28.418A4.487,4.487,0,0,1,28.418,32.9H7.478a4.487,4.487,0,0,1-4.487-4.487V7.478A4.487,4.487,0,0,1,7.478,2.991h20.94A4.487,4.487,0,0,1,32.9,7.478Z" fill="#0c3572"/>
  <path id="Path_203" data-name="Path 203" d="M12.122,20.65,6.26,14.788a1.5,1.5,0,0,0-2.115,0h0a1.5,1.5,0,0,0,0,2.115l5.862,5.861a2.991,2.991,0,0,0,4.231,0L28.076,8.927a1.5,1.5,0,0,0,0-2.115h0a1.5,1.5,0,0,0-2.115,0Z" transform="translate(1.838 3.159)" fill="#0c3572"/>
</svg>
