<svg xmlns="http://www.w3.org/2000/svg" width="28.305" height="28.309" viewBox="0 0 28.305 28.309">
  <path id="Path_18" data-name="Path 18" d="M156.713,129.443a1.753,1.753,0,0,0-2.487,0L143.078,140.59,131.93,129.443a1.759,1.759,0,0,0-2.487,2.487l11.148,11.148-11.148,11.148a1.765,1.765,0,0,0,1.237,3.008,1.715,1.715,0,0,0,1.237-.521l11.148-11.148,11.148,11.148a1.769,1.769,0,0,0,1.237.521,1.694,1.694,0,0,0,1.237-.521,1.753,1.753,0,0,0,0-2.487l-11.122-11.148,11.148-11.148A1.753,1.753,0,0,0,156.713,129.443Z" transform="translate(-128.925 -128.925)"/>
</svg>
