<svg xmlns="http://www.w3.org/2000/svg" width="16.808" height="20.695" viewBox="0 0 16.808 20.695">
  <g id="delete" transform="translate(0.003 0.001)">
    <path id="Path_74" data-name="Path 74" d="M222.883,154.7a.485.485,0,0,0-.485.485v9.16a.485.485,0,0,0,.969,0v-9.16A.485.485,0,0,0,222.883,154.7Zm0,0" transform="translate(-211.623 -147.207)"/>
    <path id="Path_75" data-name="Path 75" d="M104.883,154.7a.485.485,0,0,0-.485.485v9.16a.485.485,0,0,0,.969,0v-9.16A.485.485,0,0,0,104.883,154.7Zm0,0" transform="translate(-99.342 -147.207)"/>
    <path id="Path_76" data-name="Path 76" d="M1.373,6.16V18.1a2.674,2.674,0,0,0,.711,1.844,2.387,2.387,0,0,0,1.732.749h9.17a2.386,2.386,0,0,0,1.732-.749,2.674,2.674,0,0,0,.711-1.844V6.16a1.851,1.851,0,0,0-.475-3.641H12.472V1.913A1.9,1.9,0,0,0,10.553,0h-4.3A1.9,1.9,0,0,0,4.33,1.913v.606H1.848A1.851,1.851,0,0,0,1.373,6.16ZM12.986,19.724H3.816A1.535,1.535,0,0,1,2.343,18.1V6.2H14.459V18.1A1.535,1.535,0,0,1,12.986,19.724ZM5.3,1.913a.934.934,0,0,1,.95-.945h4.3a.934.934,0,0,1,.95.945v.606H5.3ZM1.848,3.488h13.1a.872.872,0,1,1,0,1.745H1.848a.872.872,0,0,1,0-1.745Zm0,0" transform="translate(0)"/>
    <path id="Path_77" data-name="Path 77" d="M163.883,154.7a.485.485,0,0,0-.485.485v9.16a.485.485,0,0,0,.969,0v-9.16A.485.485,0,0,0,163.883,154.7Zm0,0" transform="translate(-155.482 -147.207)"/>
  </g>
</svg>
