<svg id="surface1" xmlns="http://www.w3.org/2000/svg" width="22.611" height="24.854" viewBox="0 0 22.611 24.854">
  <path id="Path_148" data-name="Path 148" d="M16.939,10.759v-4.7a.544.544,0,0,0-.15-.357L11.515.161A.526.526,0,0,0,11.137,0H2.776A2.786,2.786,0,0,0,0,2.8V18.612a2.768,2.768,0,0,0,2.776,2.782h6.6a7.124,7.124,0,1,0,7.563-10.634ZM11.655,1.818l3.538,3.724H12.9a1.251,1.251,0,0,1-1.243-1.248ZM2.776,20.357a1.735,1.735,0,0,1-1.74-1.746V2.8a1.75,1.75,0,0,1,1.74-1.766h7.843V4.294A2.284,2.284,0,0,0,12.9,6.579h3v4.045c-.155-.005-.28-.021-.414-.021a7.228,7.228,0,0,0-4.724,1.782H4.185a.518.518,0,1,0,0,1.036H9.8a8.242,8.242,0,0,0-.912,1.606h-4.7a.518.518,0,0,0,0,1.036H8.552a7.109,7.109,0,0,0,.311,4.3H2.776Zm12.707,3.465a6.087,6.087,0,1,1,6.086-6.087A6.093,6.093,0,0,1,15.483,23.823Zm0,0" fill="#fff"/>
  <path id="Path_149" data-name="Path 149" d="M76.24,203.063h6.984a.689.689,0,0,0,0-1.379H76.24a.689.689,0,0,0,0,1.379Zm0,0" transform="translate(-72.295 -192.319)" fill="#fff"/>
  <path id="Path_150" data-name="Path 150" d="M251.04,286.569l-1.842,1.986v-4.9a.448.448,0,1,0-.9,0v4.9l-1.856-1.986a.452.452,0,0,0-.637-.022.447.447,0,0,0-.022.632l2.623,2.82a.445.445,0,0,0,.654,0l2.627-2.82a.446.446,0,1,0-.65-.61Zm0,0" transform="translate(-232.843 -268.786)" fill="#fff"/>
</svg>
