<svg xmlns="http://www.w3.org/2000/svg" width="19.488" height="19.39" viewBox="0 0 19.488 19.39">
  <g id="edit" transform="translate(0 -0.261)">
    <path id="Path_151" data-name="Path 151" d="M17.987,49.452a.485.485,0,0,0-.485.485v4.309A1.458,1.458,0,0,1,16.046,55.7H2.427A1.458,1.458,0,0,1,.971,54.247V41.6a1.458,1.458,0,0,1,1.456-1.456H6.736a.485.485,0,0,0,0-.971H2.427A2.43,2.43,0,0,0,0,41.6V54.247a2.43,2.43,0,0,0,2.427,2.427H16.046a2.43,2.43,0,0,0,2.427-2.427v-4.31A.485.485,0,0,0,17.987,49.452Zm0,0" transform="translate(0 -37.023)"/>
    <path id="Path_152" data-name="Path 152" d="M121.219.9a2.184,2.184,0,0,0-3.089,0L109.471,9.56a.485.485,0,0,0-.125.214l-1.139,4.111a.485.485,0,0,0,.6.6l4.111-1.139a.485.485,0,0,0,.214-.125l8.659-8.659a2.187,2.187,0,0,0,0-3.089Zm-10.69,8.975,7.087-7.087L119.9,5.074l-7.087,7.087Zm-.457.916,1.826,1.826-2.526.7ZM121.1,3.873l-.515.515L118.3,2.1l.515-.515a1.213,1.213,0,0,1,1.716,0l.57.57A1.215,1.215,0,0,1,121.1,3.873Zm0,0" transform="translate(-102.939)"/>
  </g>
</svg>
