<svg xmlns="http://www.w3.org/2000/svg" width="28.253" height="18.767" viewBox="0 0 28.253 18.767">
  <path id="eye" d="M28.195,12.433C26.061,7,20.405,3.354,14.126,3.354S2.192,7,.058,12.433a.831.831,0,0,0,0,.607c2.136,5.431,7.79,9.081,14.068,9.081s11.933-3.648,14.068-9.079A.819.819,0,0,0,28.195,12.433ZM14.126,20.459a13.37,13.37,0,0,1-12.4-7.721,13.366,13.366,0,0,1,12.4-7.721,13.366,13.366,0,0,1,12.4,7.721A13.372,13.372,0,0,1,14.126,20.459Zm0-13.776a6.054,6.054,0,1,0,6.056,6.054,6.061,6.061,0,0,0-6.056-6.054Zm0,10.447a4.393,4.393,0,1,1,4.393-4.393A4.4,4.4,0,0,1,14.126,17.13Zm0-6.648a2.255,2.255,0,1,0,2.255,2.255A2.258,2.258,0,0,0,14.126,10.482Zm0,2.849a.593.593,0,1,1,.593-.593A.594.594,0,0,1,14.126,13.331Z" transform="translate(0 -3.354)"/>
</svg>
