<svg xmlns="http://www.w3.org/2000/svg" width="29.619" height="35.543" viewBox="0 0 29.619 35.543">
  <g id="fi-sr-file" transform="translate(-42.667)">
    <path id="Path_206" data-name="Path 206" d="M300.148,20.98h9.685a10.3,10.3,0,0,0-2.356-3.649l-5.16-5.163a10.332,10.332,0,0,0-3.651-2.355V19.5A1.481,1.481,0,0,0,300.148,20.98Z" transform="translate(-238.229 -9.133)" fill="#0c3572"/>
    <path id="Path_207" data-name="Path 207" d="M72.251,14.81H61.919a4.443,4.443,0,0,1-4.443-4.443V.036C57.238.019,57,0,56.758,0H50.072a7.414,7.414,0,0,0-7.4,7.4V28.138a7.414,7.414,0,0,0,7.4,7.4h14.81a7.414,7.414,0,0,0,7.4-7.4V15.528C72.286,15.286,72.267,15.048,72.251,14.81Z" fill="#0c3572"/>
  </g>
</svg>
