<svg xmlns="http://www.w3.org/2000/svg" width="29" height="26.583" viewBox="0 0 29 26.583">
  <g id="fi-sr-folder" transform="translate(0 -21.334)">
    <path id="Path_212" data-name="Path 212" d="M0,189.574V200.46A6.049,6.049,0,0,0,6.042,206.5H22.958A6.049,6.049,0,0,0,29,200.46V189.44Z" transform="translate(0 -158.584)" fill="#0c3572"/>
    <path id="Path_213" data-name="Path 213" d="M22.958,23.751H15.07a1.232,1.232,0,0,1-.54-.121l-3.813-1.914a3.642,3.642,0,0,0-1.62-.382H6.042A6.049,6.049,0,0,0,0,27.376v1.2l28.834-.134A6.042,6.042,0,0,0,22.958,23.751Z" fill="#0c3572"/>
  </g>
</svg>
