<svg id="_004-group" data-name="004-group" xmlns="http://www.w3.org/2000/svg" width="22.609" height="16.957" viewBox="0 0 22.609 16.957">
  <g id="Group_429" data-name="Group 429" transform="translate(0 0)">
    <path id="Path_119" data-name="Path 119" d="M19.331,69.8A3.384,3.384,0,0,0,16.957,64a3.405,3.405,0,0,0-1.759.491.377.377,0,1,0,.389.645,2.638,2.638,0,0,1,4.007,2.255,2.624,2.624,0,0,1-1.2,2.21,2.652,2.652,0,0,1-2.166.326.377.377,0,1,0-.207.725,3.4,3.4,0,0,0,.936.131,3.357,3.357,0,0,0,1.674-.454,4.88,4.88,0,0,1,3.225,4.6v1.884H18.42a7.165,7.165,0,0,0-4.16-5.765,4.145,4.145,0,1,0-5.909,0A7.26,7.26,0,0,0,6.241,72.5a7.121,7.121,0,0,0-2.055,4.309H.754V74.928a4.88,4.88,0,0,1,1.434-3.463,4.951,4.951,0,0,1,1.795-1.133,3.36,3.36,0,0,0,1.67.451,3.4,3.4,0,0,0,.936-.131.377.377,0,1,0-.207-.725A2.651,2.651,0,0,1,4.214,69.6a2.636,2.636,0,0,1,1.438-4.846,2.652,2.652,0,0,1,1.369.383.377.377,0,1,0,.389-.645,3.392,3.392,0,0,0-5.15,2.9A3.369,3.369,0,0,0,3.276,69.8a5.74,5.74,0,0,0-1.621,1.13,5.63,5.63,0,0,0-1.655,4v2.261a.377.377,0,0,0,.377.377H4.145V80.58a.377.377,0,0,0,.377.377H18.087a.377.377,0,0,0,.377-.377V77.566h3.768a.377.377,0,0,0,.377-.377V74.928A5.632,5.632,0,0,0,19.331,69.8ZM7.913,68.145A3.391,3.391,0,1,1,11.3,71.536,3.4,3.4,0,0,1,7.913,68.145Zm9.8,12.058H4.9V77.566a6.377,6.377,0,0,1,1.875-4.53,6.472,6.472,0,0,1,2.236-1.442,4.132,4.132,0,0,0,4.594,0,6.408,6.408,0,0,1,4.107,5.974V80.2Z" transform="translate(0 -64)"/>
  </g>
</svg>
