<svg id="info" xmlns="http://www.w3.org/2000/svg" width="57" height="57" viewBox="0 0 57 57">
  <g id="Group_51" data-name="Group 51">
    <path id="Path_23" data-name="Path 23" d="M28.5,0A28.5,28.5,0,1,0,57,28.5,28.532,28.532,0,0,0,28.5,0Zm0,53.492A24.992,24.992,0,1,1,53.492,28.5,25.021,25.021,0,0,1,28.5,53.492Z" fill="#0c3572"/>
    <circle id="Ellipse_9" data-name="Ellipse 9" cx="2.933" cy="2.933" r="2.933" transform="translate(26.021 14.203)" fill="#0c3572"/>
    <path id="Path_24" data-name="Path 24" d="M31.891,28.342A1.754,1.754,0,0,0,30.137,30.1V45a1.754,1.754,0,1,0,3.508,0V30.1A1.754,1.754,0,0,0,31.891,28.342Z" transform="translate(-3.709 -3.488)" fill="#0c3572"/>
  </g>
</svg>
