<svg xmlns="http://www.w3.org/2000/svg" width="35.9" height="35.898" viewBox="0 0 35.9 35.898">
  <path id="fi-rr-comment-info" d="M20.192,9.722a2.244,2.244,0,1,1-2.244-2.243,2.244,2.244,0,0,1,2.244,2.243Zm15.7,18.7V18.457A18.261,18.261,0,0,0,19.2.043,17.948,17.948,0,0,0,.044,19.226C.705,28.729,9.1,35.9,19.569,35.9h8.85A7.487,7.487,0,0,0,35.9,28.418ZM19,3.028a15.256,15.256,0,0,1,13.91,15.429v9.961a4.487,4.487,0,0,1-4.487,4.487h-8.85c-9.025,0-15.978-5.833-16.539-13.886A14.957,14.957,0,0,1,17.973,2.992C18.312,2.992,18.655,3.005,19,3.028ZM20.94,26.923V17.949a2.991,2.991,0,0,0-2.991-2.991h-1.5a1.5,1.5,0,1,0,0,2.991h1.5v8.974a1.5,1.5,0,0,0,2.991,0Z" transform="translate(0.002 0.001)" fill="#0c3572"/>
</svg>
