<svg xmlns="http://www.w3.org/2000/svg" width="35.896" height="32.905" viewBox="0 0 35.896 32.905">
  <path id="fi-rr-window-alt" d="M28.418,1H7.478A7.481,7.481,0,0,0,0,8.478V26.426A7.481,7.481,0,0,0,7.478,33.9h20.94A7.481,7.481,0,0,0,35.9,26.426V8.478A7.481,7.481,0,0,0,28.418,1ZM7.478,3.991h20.94A4.5,4.5,0,0,1,32.9,8.478V11.47H2.991V8.478A4.5,4.5,0,0,1,7.478,3.991Zm20.94,26.922H7.478a4.5,4.5,0,0,1-4.487-4.487V14.461H32.9V26.426A4.5,4.5,0,0,1,28.418,30.913ZM26.922,7.73a2.244,2.244,0,1,1,2.244,2.243A2.241,2.241,0,0,1,26.922,7.73Zm-5.983,0a2.244,2.244,0,1,1,2.244,2.243A2.241,2.241,0,0,1,20.94,7.73Zm-5.983,0A2.244,2.244,0,1,1,17.2,9.974,2.241,2.241,0,0,1,14.957,7.73Z" transform="translate(0 -1)" fill="#0c3572"/>
</svg>
