<svg xmlns="http://www.w3.org/2000/svg" width="26.922" height="35.896" viewBox="0 0 26.922 35.896">
  <path id="fi-rr-clipboard-list" d="M22.444,26.922H16.461a1.5,1.5,0,1,1,0-2.991h5.983a1.5,1.5,0,1,1,0,2.991Zm7.478,1.5V10.47a7.487,7.487,0,0,0-7.478-7.478h-.256A4.5,4.5,0,0,0,17.957,0H14.965a4.5,4.5,0,0,0-4.231,2.991h-.256A7.487,7.487,0,0,0,3,10.47V28.418A7.487,7.487,0,0,0,10.478,35.9H22.444A7.487,7.487,0,0,0,29.922,28.418ZM11.974,5.983a1.5,1.5,0,0,0,1.5-1.5,1.5,1.5,0,0,1,1.5-1.5h2.991a1.5,1.5,0,0,1,1.5,1.5,1.5,1.5,0,0,0,1.5,1.5h1.5a4.492,4.492,0,0,1,4.487,4.487V28.418A4.492,4.492,0,0,1,22.444,32.9H10.478a4.492,4.492,0,0,1-4.487-4.487V10.47a4.492,4.492,0,0,1,4.487-4.487Zm-1.5,17.948a1.5,1.5,0,1,0,1.5,1.5A1.5,1.5,0,0,0,10.478,23.931ZM23.94,19.444a1.5,1.5,0,0,0-1.5-1.5H16.461a1.5,1.5,0,1,0,0,2.991h5.983A1.5,1.5,0,0,0,23.94,19.444Zm-13.461-1.5a1.5,1.5,0,1,0,1.5,1.5A1.5,1.5,0,0,0,10.478,17.948ZM23.94,13.461a1.5,1.5,0,0,0-1.5-1.5H16.461a1.5,1.5,0,1,0,0,2.991h5.983A1.5,1.5,0,0,0,23.94,13.461Zm-13.461-1.5a1.5,1.5,0,1,0,1.5,1.5A1.5,1.5,0,0,0,10.478,11.965Z" transform="translate(-3)" fill="#0c3572"/>
</svg>
