<svg xmlns="http://www.w3.org/2000/svg" width="21.461" height="21.461" viewBox="0 0 21.461 21.461">
  <g id="Management" transform="translate(-2 -2)">
    <path id="Path_117" data-name="Path 117" d="M22.485,10.292H20.648a8.232,8.232,0,0,0-.594-1.435l1.3-1.3a.977.977,0,0,0,0-1.38L19.283,4.108a.976.976,0,0,0-1.38,0l-1.3,1.3a8.231,8.231,0,0,0-1.435-.594V2.975A.976.976,0,0,0,14.194,2H11.267a.976.976,0,0,0-.975.975V4.813a8.231,8.231,0,0,0-1.435.594l-1.3-1.3a.976.976,0,0,0-1.38,0L4.108,6.178a.977.977,0,0,0,0,1.38l1.3,1.3a8.231,8.231,0,0,0-.594,1.435H2.975A.976.976,0,0,0,2,11.267v2.926a.976.976,0,0,0,.975.975H4.813A8.231,8.231,0,0,0,5.407,16.6l-1.3,1.3a.977.977,0,0,0,0,1.38l2.069,2.069a.977.977,0,0,0,1.38,0l1.3-1.3a8.231,8.231,0,0,0,1.435.594v1.838a.976.976,0,0,0,.975.975h2.926a.976.976,0,0,0,.975-.975V20.648a8.231,8.231,0,0,0,1.435-.594l1.3,1.3a.977.977,0,0,0,1.38,0l2.069-2.069a.977.977,0,0,0,0-1.38l-1.3-1.3a8.232,8.232,0,0,0,.594-1.435h1.838a.976.976,0,0,0,.975-.975V11.267a.976.976,0,0,0-.975-.975Zm0,3.9H20.279a.488.488,0,0,0-.472.366,7.256,7.256,0,0,1-.779,1.881.488.488,0,0,0,.075.593l1.56,1.56-2.07,2.069-1.56-1.56a.488.488,0,0,0-.593-.075,7.256,7.256,0,0,1-1.881.779.488.488,0,0,0-.366.472v2.207H11.267V20.279a.488.488,0,0,0-.366-.472,7.257,7.257,0,0,1-1.881-.779.488.488,0,0,0-.593.075l-1.56,1.56L4.8,18.593l1.56-1.56a.488.488,0,0,0,.075-.593,7.256,7.256,0,0,1-.779-1.881.488.488,0,0,0-.472-.366H2.975V11.267H5.182a.488.488,0,0,0,.472-.366,7.257,7.257,0,0,1,.779-1.881.488.488,0,0,0-.075-.593L4.8,6.867,6.868,4.8l1.56,1.56a.487.487,0,0,0,.593.075A7.257,7.257,0,0,1,10.9,5.655a.488.488,0,0,0,.366-.472V2.975h2.926V5.182a.488.488,0,0,0,.366.472,7.256,7.256,0,0,1,1.881.779.488.488,0,0,0,.593-.075l1.56-1.56,2.069,2.07L19.1,8.428a.488.488,0,0,0-.075.593,7.257,7.257,0,0,1,.779,1.881.488.488,0,0,0,.472.366h2.207Z"/>
    <path id="Path_118" data-name="Path 118" d="M18.877,14a4.877,4.877,0,1,0,4.877,4.877A4.877,4.877,0,0,0,18.877,14Zm0,8.779a3.9,3.9,0,1,1,3.9-3.9A3.9,3.9,0,0,1,18.877,22.779Z" transform="translate(-6.147 -6.147)"/>
  </g>
</svg>
