<svg xmlns="http://www.w3.org/2000/svg" width="35.896" height="35.896" viewBox="0 0 35.896 35.896">
  <path id="fi-rr-map-marker" d="M17.948,17.948a5.983,5.983,0,1,0-5.983-5.983,5.983,5.983,0,0,0,5.983,5.983Zm0-8.974a2.991,2.991,0,1,1-2.991,2.991A2.991,2.991,0,0,1,17.948,8.974ZM30.9,13.7l-1.075-.357a11.954,11.954,0,1,0-23.714.26A7.546,7.546,0,0,0,2.3,15.543a7.4,7.4,0,0,0-2.3,5.4v6.095a7.5,7.5,0,0,0,5.384,7.179l4.293,1.346A7.45,7.45,0,0,0,11.9,35.9a7.592,7.592,0,0,0,2.027-.278l8.645-2.558a4.468,4.468,0,0,1,2.353,0l3.57,1.2a5.983,5.983,0,0,0,7.4-5.808v-7.7a7.5,7.5,0,0,0-5-7.054ZM11.6,5.627A8.987,8.987,0,0,1,24.309,18.34L19,23.507a1.484,1.484,0,0,1-2.078,0L11.6,18.362a9.034,9.034,0,0,1,0-12.736Zm21.3,22.822A2.978,2.978,0,0,1,31.762,30.8a2.945,2.945,0,0,1-2.432.591l-3.507-1.179a7.513,7.513,0,0,0-4.064-.024l-8.651,2.555a4.487,4.487,0,0,1-2.534-.043L6.246,31.354a4.506,4.506,0,0,1-3.255-4.319V20.939A4.433,4.433,0,0,1,4.367,17.7a4.523,4.523,0,0,1,2.5-1.206A12,12,0,0,0,9.5,20.491l5.335,5.165a4.462,4.462,0,0,0,6.243,0l5.329-5.179a11.908,11.908,0,0,0,2.712-4.219l.8.266a4.5,4.5,0,0,1,2.979,4.225Z" transform="translate(0)" fill="#0c3572"/>
</svg>
