<svg xmlns="http://www.w3.org/2000/svg" width="40.008" height="40.008" viewBox="0 0 40.008 40.008">
  <g id="_004-online-tax" data-name="004-online-tax" transform="translate(-1 -1)">
    <path id="Path_215" data-name="Path 215" d="M0,0H5.475V1.291H0Z" transform="translate(30.867 15.387) rotate(-45)" fill="#0c3572"/>
    <circle id="Ellipse_35" data-name="Ellipse 35" cx="0.5" cy="0.5" r="0.5" transform="translate(31 12)" fill="#0c3572"/>
    <circle id="Ellipse_36" data-name="Ellipse 36" cx="0.5" cy="0.5" r="0.5" transform="translate(35 15)" fill="#0c3572"/>
    <path id="Path_216" data-name="Path 216" d="M48.162,13a5.162,5.162,0,1,0,5.162,5.162A5.168,5.168,0,0,0,48.162,13Zm0,9.034a3.872,3.872,0,1,1,3.872-3.872A3.876,3.876,0,0,1,48.162,22.034Z" transform="translate(-14.898 -4.257)" fill="#0c3572"/>
    <path id="Path_217" data-name="Path 217" d="M41.008,13.906a7.724,7.724,0,0,0-9.874-7.438,7.093,7.093,0,1,0-13.726,3.567H4.226A3.23,3.23,0,0,0,1,13.26V31.329a3.23,3.23,0,0,0,3.226,3.226H13.26v1.291H11.325c-6.737,0-7.743,2.426-7.743,3.872a1.292,1.292,0,0,0,1.291,1.291h27.1a1.292,1.292,0,0,0,1.291-1.291c0-1.446-1.006-3.872-7.743-3.872H23.585V34.555h9.034a3.23,3.23,0,0,0,3.226-3.226V21.2A7.75,7.75,0,0,0,41.008,13.906ZM18.423,8.1A5.808,5.808,0,0,1,29.915,6.9l0,.032a7.784,7.784,0,0,0-3.349,3.1h-.521a1.9,1.9,0,0,0,.119-.645A1.938,1.938,0,0,0,24.23,7.453a.645.645,0,1,1,.645-.645h1.291A1.933,1.933,0,0,0,24.876,4.99V3.581H23.585V4.99a1.931,1.931,0,0,0,.645,3.753.645.645,0,1,1-.645.645H22.294a1.914,1.914,0,0,0,.119.645H18.76A5.776,5.776,0,0,1,18.423,8.1Zm8.389,10.079v.676l-1.291,1.721L24.23,18.853V17.777H22.94v1.505l1.775,2.366L22.94,24.015v1.505H24.23V24.445l1.291-1.721,1.291,1.721v1.076H28.1V24.015l-1.775-2.366,1.606-2.142a7.737,7.737,0,0,0,2.75,1.69v6.9H6.162V15.2H25.638A7.693,7.693,0,0,0,26.811,18.177ZM25.521,37.136c4.1,0,6.453.941,6.453,2.581H4.872c0-1.64,2.352-2.581,6.453-2.581h2.295a2.573,2.573,0,0,0,2.222,1.291H21a2.573,2.573,0,0,0,2.222-1.291Zm-3.226-1.291A1.292,1.292,0,0,1,21,37.136H15.842a1.292,1.292,0,0,1-1.291-1.291V34.555h7.743Zm12.26-4.517a1.938,1.938,0,0,1-1.936,1.936H4.226a1.938,1.938,0,0,1-1.936-1.936V13.26a1.938,1.938,0,0,1,1.936-1.936H25.973a7.693,7.693,0,0,0-.452,2.581H4.872V29.393h27.1v-7.86a7.189,7.189,0,0,0,2.581,0Zm-1.291-10.97a6.453,6.453,0,1,1,6.453-6.453A6.46,6.46,0,0,1,33.264,20.359Z" fill="#0c3572"/>
    <path id="Path_218" data-name="Path 218" d="M25.291,33.453h2.581v1.291h1.291V32.808L27.73,27h-2.3l-1.413,5.651L24,34.743h1.291Zm1.432-5.162.968,3.872H25.472l.968-3.872Z" transform="translate(-8.158 -9.223)" fill="#0c3572"/>
    <path id="Path_219" data-name="Path 219" d="M15.581,34.743h1.291V28.291h2.581V27H13v1.291h2.581Z" transform="translate(-4.257 -9.223)" fill="#0c3572"/>
    <path id="Path_220" data-name="Path 220" d="M47,47h1.291v1.291H47Z" transform="translate(-16.317 -16.317)" fill="#0c3572"/>
    <path id="Path_221" data-name="Path 221" d="M43,47h1.291v1.291H43Z" transform="translate(-14.898 -16.317)" fill="#0c3572"/>
    <path id="Path_222" data-name="Path 222" d="M39,47h1.291v1.291H39Z" transform="translate(-13.479 -16.317)" fill="#0c3572"/>
  </g>
</svg>
