<svg xmlns="http://www.w3.org/2000/svg" width="29.949" height="29.948" viewBox="0 0 29.949 29.948">
  <path id="fi-rr-percentage" d="M1.248,29.948a1.248,1.248,0,0,1-.882-2.13L27.819.366A1.248,1.248,0,1,1,29.583,2.13L2.13,29.583A1.244,1.244,0,0,1,1.248,29.948ZM11.231,6.239a4.991,4.991,0,1,0-4.991,4.991A5,5,0,0,0,11.231,6.239Zm-2.5,0a2.5,2.5,0,1,1-2.5-2.5A2.5,2.5,0,0,1,8.735,6.239ZM28.7,23.709A4.991,4.991,0,1,0,23.709,28.7,5,5,0,0,0,28.7,23.709Zm-2.5,0a2.5,2.5,0,1,1-2.5-2.5A2.5,2.5,0,0,1,26.205,23.709Z" transform="translate(0 0)" fill="#0c3572"/>
</svg>
