<svg xmlns="http://www.w3.org/2000/svg" width="14.553" height="10.187" viewBox="0 0 14.553 10.187">
  <g id="sort" transform="translate(-2 -5)">
    <g id="Group_189" data-name="Group 189" transform="translate(4.183 9.366)">
      <path id="Path_57" data-name="Path 57" d="M14.459,12.455H5.728a.728.728,0,0,1,0-1.455h8.732a.728.728,0,0,1,0,1.455Z" transform="translate(-5 -11)" fill="currentColor"/>
    </g>
    <g id="Group_190" data-name="Group 190" transform="translate(6.366 13.732)">
      <path id="Path_58" data-name="Path 58" d="M13.093,18.455H8.728a.728.728,0,0,1,0-1.455h4.366a.728.728,0,1,1,0,1.455Z" transform="translate(-8 -17)" fill="currentColor"/>
    </g>
    <g id="Group_191" data-name="Group 191" transform="translate(2 5)">
      <path id="Path_59" data-name="Path 59" d="M15.825,6.455H2.728A.687.687,0,0,1,2,5.728.687.687,0,0,1,2.728,5h13.1a.687.687,0,0,1,.728.728A.687.687,0,0,1,15.825,6.455Z" transform="translate(-2 -5)" fill="currentColor"/>
    </g>
  </g>
</svg>
