<svg xmlns="http://www.w3.org/2000/svg" width="13.073" height="13.075" viewBox="0 0 13.073 13.075">
  <path id="Path_18" data-name="Path 18" d="M141.759,129.164a.81.81,0,0,0-1.149,0l-5.149,5.149-5.149-5.149a.812.812,0,1,0-1.149,1.149l5.149,5.149-5.149,5.149a.815.815,0,0,0,.571,1.389.792.792,0,0,0,.571-.241l5.149-5.149,5.149,5.149a.817.817,0,0,0,.571.241.782.782,0,0,0,.571-.241.81.81,0,0,0,0-1.149l-5.137-5.149,5.149-5.149A.81.81,0,0,0,141.759,129.164Z" transform="translate(-128.925 -128.925)" fill="red"/>
</svg>
