<svg id="_003-ticket" data-name="003-ticket" xmlns="http://www.w3.org/2000/svg" width="42.868" height="42.868" viewBox="0 0 42.868 42.868">
  <path id="Path_79" data-name="Path 79" d="M37.967,11.242l-.468.468a3.355,3.355,0,0,1-2.838,1.129,4.478,4.478,0,0,1-4.629-4.629,3.353,3.353,0,0,1,1.129-2.838l.468-.468L26.726,0,0,26.726l4.9,4.9.467-.469a3.355,3.355,0,0,1,2.838-1.129,4.478,4.478,0,0,1,4.629,4.629A3.353,3.353,0,0,1,11.708,37.5l-.468.468,4.9,4.9L42.868,16.142ZM13.094,37.948a4.56,4.56,0,0,0,1.067-3.287,5.821,5.821,0,0,0-5.952-5.952,4.558,4.558,0,0,0-3.288,1.067L1.87,26.726l15.6-15.6,2.178,2.178.935-.935L18.4,10.193,26.726,1.87l3.051,3.052a4.56,4.56,0,0,0-1.067,3.287,5.821,5.821,0,0,0,5.951,5.951,4.558,4.558,0,0,0,3.288-1.067L41,16.145l-8.323,8.323L30.5,22.29l-.935.935L31.742,25.4,16.145,41Z" fill="#0c3572"/>
  <path id="Path_80" data-name="Path 80" d="M34.352,24.288l-2.645-2.645.935-.935,2.645,2.645Z" transform="translate(-10.74 -7.014)" fill="#0c3572"/>
  <path id="Path_81" data-name="Path 81" d="M41.352,31.288l-2.645-2.645.935-.935,2.645,2.645Z" transform="translate(-13.11 -9.385)" fill="#0c3572"/>
</svg>
