<svg xmlns="http://www.w3.org/2000/svg" width="24" height="19.995" viewBox="0 0 24 19.995">
  <g id="_001-ticket" data-name="001-ticket" transform="translate(0 -2.005)">
    <path id="Path_108" data-name="Path 108" d="M21.5,22H2.5A2.5,2.5,0,0,1,0,19.5v-2A.5.5,0,0,1,.5,17H1a2,2,0,0,0,0-4H.5a.5.5,0,0,1-.5-.5v-2A2.5,2.5,0,0,1,2.5,8h19A2.5,2.5,0,0,1,24,10.5v2a.5.5,0,0,1-.5.5H23a2,2,0,0,0,0,4h.5a.5.5,0,0,1,.5.5v2A2.5,2.5,0,0,1,21.5,22ZM1,18v1.5A1.5,1.5,0,0,0,2.5,21h19A1.5,1.5,0,0,0,23,19.5V18h0a3,3,0,0,1,0-6V10.5A1.5,1.5,0,0,0,21.5,9H2.5A1.5,1.5,0,0,0,1,10.5V12a3,3,0,0,1,0,6Z"/>
    <path id="Path_109" data-name="Path 109" d="M8.5,10A.5.5,0,0,1,8,9.5v-1a.5.5,0,0,1,1,0v1A.5.5,0,0,1,8.5,10Z"/>
    <path id="Path_110" data-name="Path 110" d="M8.5,18.461a.5.5,0,0,1-.5-.5V16.27a.5.5,0,0,1,1,0v1.692A.5.5,0,0,1,8.5,18.461Zm0-4.23a.5.5,0,0,1-.5-.5V12.039a.5.5,0,0,1,1,0v1.692A.5.5,0,0,1,8.5,14.231Z"/>
    <path id="Path_111" data-name="Path 111" d="M8.5,22a.5.5,0,0,1-.5-.5v-1a.5.5,0,0,1,1,0v1A.5.5,0,0,1,8.5,22Z"/>
    <path id="Path_112" data-name="Path 112" d="M2.5,9a.5.5,0,0,1-.175-.968L18.225,2.1a1.527,1.527,0,0,1,1.945.923l1.8,5.321a.5.5,0,0,1-.947.321l-1.8-5.321a.511.511,0,0,0-.649-.308L2.674,8.968A.482.482,0,0,1,2.5,9Z"/>
  </g>
</svg>
