<svg id="fi-rr-ticket" xmlns="http://www.w3.org/2000/svg" width="26.922" height="35.896" viewBox="0 0 26.922 35.896">
  <path id="Path_204" data-name="Path 204" d="M22.444,0h-.194a3.021,3.021,0,0,0-2.9,2.291,2.991,2.991,0,0,1-5.77,0A3.021,3.021,0,0,0,10.673,0h-.194A7.487,7.487,0,0,0,3,7.478V31.409A4.487,4.487,0,0,0,7.487,35.9h3.186a3.021,3.021,0,0,0,2.9-2.291,2.991,2.991,0,0,1,5.77,0,3.021,3.021,0,0,0,2.9,2.291h3.186a4.487,4.487,0,0,0,4.487-4.487V7.478A7.487,7.487,0,0,0,22.444,0Zm2.991,32.9L22.23,32.81a5.983,5.983,0,0,0-11.557.094H7.487a1.5,1.5,0,0,1-1.5-1.5V25.426H8.983a1.5,1.5,0,1,0,0-2.991H5.991V7.478a4.487,4.487,0,0,1,4.487-4.487l.214.094a6,6,0,0,0,5.769,4.393,6.089,6.089,0,0,0,5.823-4.487h.16a4.487,4.487,0,0,1,4.487,4.487V22.435H23.94a1.5,1.5,0,1,0,0,2.991h2.991v5.983A1.5,1.5,0,0,1,25.435,32.9Z" transform="translate(-3 0)" fill="#0c3572"/>
  <path id="Path_205" data-name="Path 205" d="M14.487,15H11.5a1.5,1.5,0,1,0,0,2.991h2.991a1.5,1.5,0,1,0,0-2.991Z" transform="translate(0.47 7.435)" fill="#0c3572"/>
</svg>
