<svg xmlns="http://www.w3.org/2000/svg" width="21.523" height="26.5" viewBox="0 0 21.523 26.5">
  <g id="delete" transform="translate(0.003 0.001)">
    <path id="Path_74" data-name="Path 74" d="M223.019,154.7a.621.621,0,0,0-.621.621v11.73a.621.621,0,0,0,1.241,0v-11.73A.621.621,0,0,0,223.019,154.7Zm0,0" transform="translate(-208.599 -145.103)"/>
    <path id="Path_75" data-name="Path 75" d="M105.019,154.7a.621.621,0,0,0-.621.621v11.73a.621.621,0,0,0,1.241,0v-11.73A.621.621,0,0,0,105.019,154.7Zm0,0" transform="translate(-97.922 -145.103)"/>
    <path id="Path_76" data-name="Path 76" d="M1.759,7.888V23.179a3.424,3.424,0,0,0,.91,2.361,3.056,3.056,0,0,0,2.217.959H16.629a3.055,3.055,0,0,0,2.217-.959,3.424,3.424,0,0,0,.91-2.361V7.888a2.371,2.371,0,0,0-.608-4.662H15.971V2.45A2.438,2.438,0,0,0,13.514,0H8A2.438,2.438,0,0,0,5.545,2.45v.776H2.368a2.371,2.371,0,0,0-.608,4.662Zm14.87,17.37H4.887A1.965,1.965,0,0,1,3,23.179V7.943H18.516V23.179A1.965,1.965,0,0,1,16.629,25.258ZM6.786,2.45A1.2,1.2,0,0,1,8,1.24h5.511A1.2,1.2,0,0,1,14.73,2.45v.776H6.786ZM2.368,4.467H19.149a1.117,1.117,0,1,1,0,2.234H2.368a1.117,1.117,0,1,1,0-2.234Zm0,0" transform="translate(0 0)"/>
    <path id="Path_77" data-name="Path 77" d="M164.019,154.7a.621.621,0,0,0-.621.621v11.73a.621.621,0,0,0,1.241,0v-11.73A.621.621,0,0,0,164.019,154.7Zm0,0" transform="translate(-153.261 -145.103)"/>
  </g>
</svg>
