<svg xmlns="http://www.w3.org/2000/svg" width="36.795" height="34.011" viewBox="0 0 36.795 34.011">
  <g id="upload" transform="translate(0 -18.4)">
    <g id="Group_49" data-name="Group 49" transform="translate(0 18.4)">
      <path id="Path_20" data-name="Path 20" d="M29.925,27.283a10.658,10.658,0,0,0-19.748-3.541,6.105,6.105,0,0,0-1.12-.106A5.842,5.842,0,0,0,3.223,29.47a6.377,6.377,0,0,0,.121,1.211A8.118,8.118,0,0,0,0,37.225a8.679,8.679,0,0,0,2.2,5.743A7.858,7.858,0,0,0,7.65,45.707h6.568a1.021,1.021,0,0,0,0-2.043H7.74a6.443,6.443,0,0,1-5.7-6.447,6.064,6.064,0,0,1,3-5.221,1.03,1.03,0,0,0,.446-1.241,3.707,3.707,0,0,1-.227-1.3,3.8,3.8,0,0,1,3.791-3.791,3.726,3.726,0,0,1,1.294.227,1.026,1.026,0,0,0,1.279-.522A8.615,8.615,0,0,1,28,28.206a1.02,1.02,0,0,0,.847.908,7.363,7.363,0,0,1-.7,14.542H22.57a1.021,1.021,0,1,0,0,2.043h5.69a9.052,9.052,0,0,0,6.068-3,9.417,9.417,0,0,0-4.4-15.42Z" transform="translate(0 -18.4)" fill="#0c3572"/>
      <path id="Path_21" data-name="Path 21" d="M170.783,192.558a1.018,1.018,0,0,0,0-1.445l-5.41-5.41a1.034,1.034,0,0,0-.719-.3,1,1,0,0,0-.719.3l-5.41,5.41a1.025,1.025,0,0,0,.719,1.748,1,1,0,0,0,.719-.3l3.67-3.67v16.865a1.021,1.021,0,1,0,2.043,0V188.888l3.67,3.67A1.009,1.009,0,0,0,170.783,192.558Z" transform="translate(-146.253 -172.764)" fill="#0c3572"/>
    </g>
  </g>
</svg>
