<svg xmlns="http://www.w3.org/2000/svg" width="35.896" height="35.896" viewBox="0 0 35.896 35.896">
  <path id="fi-rr-users" d="M11.218,19.444a6.73,6.73,0,1,1,6.731-6.73,6.731,6.731,0,0,1-6.731,6.73Zm0-10.47a3.739,3.739,0,1,0,3.739,3.739A3.739,3.739,0,0,0,11.218,8.974ZM22.435,34.4v-.748A11.218,11.218,0,0,0,0,33.652V34.4a1.5,1.5,0,0,0,2.991,0v-.748a8.226,8.226,0,0,1,16.452,0V34.4a1.5,1.5,0,0,0,2.991,0ZM35.9,26.922a10.47,10.47,0,0,0-17.45-7.8,1.5,1.5,0,1,0,2,2.229A7.478,7.478,0,0,1,32.9,26.922a1.5,1.5,0,0,0,2.991,0ZM26.174,13.461A6.73,6.73,0,1,1,32.9,6.73a6.731,6.731,0,0,1-6.731,6.73Zm0-10.47A3.739,3.739,0,1,0,29.914,6.73,3.739,3.739,0,0,0,26.174,2.991Z" fill="#0c3572"/>
</svg>
