<svg xmlns="http://www.w3.org/2000/svg" width="34.695" height="35.896" viewBox="0 0 34.695 35.896">
  <path id="fi-rr-user-gear" d="M22.436,8.974a8.974,8.974,0,1,0-8.974,8.974A8.983,8.983,0,0,0,22.436,8.974Zm-8.974,5.983a5.983,5.983,0,1,1,5.983-5.983A5.989,5.989,0,0,1,13.462,14.957Zm-.012,7.386a1.5,1.5,0,0,1-1.3,1.669A10.479,10.479,0,0,0,2.99,34.4,1.5,1.5,0,0,1,0,34.4a13.473,13.473,0,0,1,11.78-13.356,1.5,1.5,0,0,1,1.669,1.3Zm20.5,6.274-1.457-.841a6.855,6.855,0,0,0,0-4.7l1.457-.841a1.5,1.5,0,1,0-1.5-2.59L31,20.483A7.436,7.436,0,0,0,26.923,18.1V16.452a1.5,1.5,0,0,0-2.991,0V18.1a7.454,7.454,0,0,0-4.073,2.384L18.4,19.643a1.5,1.5,0,1,0-1.5,2.59l1.457.841a6.855,6.855,0,0,0,0,4.7l-1.457.841a1.5,1.5,0,1,0,1.5,2.59l1.455-.841a7.436,7.436,0,0,0,4.073,2.384V34.4a1.5,1.5,0,0,0,2.991,0V32.75A7.454,7.454,0,0,0,31,30.366l1.455.841a1.5,1.5,0,1,0,1.5-2.59Zm-8.519,1.3a4.487,4.487,0,1,1,4.487-4.487A4.492,4.492,0,0,1,25.427,29.912Z" transform="translate(0.001)" fill="#0c3572"/>
</svg>
