<svg xmlns="http://www.w3.org/2000/svg" width="28.301" height="28.301" viewBox="0 0 28.301 28.301">
  <g id="wallet" transform="translate(-0.003 0)">
    <g id="Group_388" data-name="Group 388" transform="translate(0.003 0)">
      <g id="Group_387" data-name="Group 387" transform="translate(0 0)">
        <path id="Path_88" data-name="Path 88" d="M27.017,14.269V10.292A2.567,2.567,0,0,0,24.649,7.74L20.955,1.288A2.546,2.546,0,0,0,17.463.347L4.8,7.719H2.576A2.575,2.575,0,0,0,0,10.292V25.729A2.575,2.575,0,0,0,2.576,28.3H24.445a2.575,2.575,0,0,0,2.573-2.573V21.751A1.926,1.926,0,0,0,28.3,19.94V16.081A1.926,1.926,0,0,0,27.017,14.269ZM23.155,7.719H17.549l4.2-2.448ZM21.114,4.155,14.992,7.719H12.452l8.027-4.673Zm-3-2.7a1.244,1.244,0,0,1,.955-.129,1.261,1.261,0,0,1,.773.6v0L9.9,7.719H7.357Zm7.62,24.27a1.288,1.288,0,0,1-1.286,1.286H2.576a1.288,1.288,0,0,1-1.286-1.286V10.292A1.288,1.288,0,0,1,2.576,9.005H24.445a1.288,1.288,0,0,1,1.286,1.286v3.859H21.872a3.859,3.859,0,1,0,0,7.718h3.859Zm1.286-5.789a.644.644,0,0,1-.643.643h-4.5a2.573,2.573,0,0,1,0-5.146h4.5a.644.644,0,0,1,.643.643Z" transform="translate(-0.003 0)"/>
        <path id="Path_89" data-name="Path 89" d="M342.623,277.341a1.286,1.286,0,1,0,1.286,1.286A1.288,1.288,0,0,0,342.623,277.341Z" transform="translate(-320.755 -260.617)"/>
      </g>
    </g>
  </g>
</svg>
